<?xml version="1.0" encoding="utf-8"?>

<svg version="1.1" id="Layer_1" xmlns="http://www.w3.org/2000/svg" xmlns:xlink="http://www.w3.org/1999/xlink" x="0px" y="0px"
	 width="100px" height="100px" viewBox="0 0 38 38" enable-background="new 0 0 38 38" xml:space="preserve">
<g transform="translate(1 1)">
	<g id="Oval-2">
		<linearGradient id="SVGID_1_" gradientUnits="userSpaceOnUse" x1="16.0439" y1="3.7256" x2="38.98" y2="13.2219">
			<stop  offset="0" style="stop-color:#FF295F;stop-opacity:0"/>
			<stop  offset="0.6315" style="stop-color:#FF295F;stop-opacity:0.631"/>
			<stop  offset="1" style="stop-color:#FF295F"/>
		</linearGradient>
		<path fill="url(#SVGID_1_)" d="M35.001,18.051c0,0-0.007-0.442-0.018-1.215c-0.004-0.193-0.008-0.407-0.012-0.639
			c-0.025-0.213-0.053-0.444-0.082-0.69c-0.055-0.493-0.104-1.054-0.265-1.671c-0.068-0.309-0.139-0.631-0.211-0.964
			c-0.106-0.325-0.215-0.661-0.327-1.005c-0.19-0.707-0.562-1.383-0.862-2.123c-0.4-0.687-0.757-1.439-1.268-2.11
			c-0.45-0.715-1.033-1.344-1.583-2.007c-0.618-0.594-1.21-1.228-1.896-1.733c-0.642-0.565-1.373-0.98-2.046-1.44
			c-0.727-0.36-1.398-0.792-2.107-1.041C23.978,1.271,23.64,1.133,23.313,1c-0.339-0.101-0.667-0.198-0.98-0.292
			c-0.626-0.21-1.221-0.312-1.748-0.408c-0.264-0.05-0.511-0.097-0.738-0.14c-0.231-0.021-0.443-0.039-0.636-0.056
			C18.44,0.038,18,0,18,0v-0.229c0,0,0.447,0.01,1.23,0.029c0.196,0.005,0.413,0.011,0.65,0.017c0.234,0.029,0.488,0.061,0.76,0.095
			c0.544,0.064,1.16,0.131,1.813,0.306c0.329,0.076,0.673,0.155,1.028,0.237c0.346,0.116,0.703,0.236,1.071,0.36
			c0.751,0.213,1.472,0.612,2.256,0.945c0.73,0.431,1.525,0.823,2.235,1.372c0.755,0.489,1.421,1.113,2.117,1.707
			c0.627,0.662,1.291,1.299,1.822,2.031c0.591,0.688,1.027,1.466,1.505,2.187c0.378,0.773,0.823,1.491,1.082,2.243
			c0.146,0.37,0.288,0.73,0.426,1.078c0.104,0.36,0.203,0.708,0.3,1.041c0.214,0.658,0.32,1.305,0.417,1.879
			c0.05,0.287,0.097,0.555,0.14,0.802c0.019,0.233,0.035,0.446,0.051,0.64c0.061,0.771,0.095,1.211,0.095,1.211L35.001,18.051z"/>
		
			<animateTransform  type="rotate" fill="remove" restart="always" calcMode="linear" additive="replace" accumulate="none" repeatCount="indefinite" dur="0.9s" to="360 18 18" from="0 18 18" attributeName="transform">
			</animateTransform>
	</g>
	<circle fill="#FF295F" cx="36" cy="18" r="1">
	
		<animateTransform  type="rotate" fill="remove" restart="always" calcMode="linear" additive="replace" accumulate="none" repeatCount="indefinite" dur="0.9s" to="360 18 18" from="0 18 18" attributeName="transform">
		</animateTransform>
	</circle>
</g>
</svg>
